<svg xmlns="http://www.w3.org/2000/svg" width="1600" height="900" viewBox="0 0 1600 900" role="img" aria-label="Project cover">
  <defs>
    <linearGradient id="bg" x1="0" y1="0" x2="1" y2="1">
      <stop offset="0%" stop-color="#3f1f14"/>
      <stop offset="100%" stop-color="#7c2d12"/>
    </linearGradient>
    <linearGradient id="line" x1="0" y1="0" x2="1" y2="0">
      <stop offset="0%" stop-color="rgba(255,255,255,0.4)"/>
      <stop offset="100%" stop-color="rgba(255,255,255,0.0)"/>
    </linearGradient>
  </defs>

  <rect width="1600" height="900" fill="url(#bg)"/>

  <g opacity="0.22">
    <circle cx="180" cy="140" r="100" fill="#fb923c"/>
    <circle cx="1460" cy="780" r="180" fill="#fb923c"/>
  </g>

  <g opacity="0.26" transform="translate(140 170)">
    <rect width="980" height="560" rx="28" fill="rgba(255,255,255,0.12)" stroke="rgba(255,255,255,0.28)"/>
    <rect x="48" y="58" width="270" height="24" rx="10" fill="rgba(255,255,255,0.42)"/>
    <rect x="48" y="106" width="430" height="16" rx="8" fill="rgba(255,255,255,0.25)"/>
    <rect x="48" y="140" width="360" height="16" rx="8" fill="rgba(255,255,255,0.22)"/>

    <g transform="translate(48 210)">
      <rect width="250" height="260" rx="18" fill="rgba(255,255,255,0.18)"/>
      <rect x="20" y="20" width="210" height="18" rx="8" fill="rgba(255,255,255,0.28)"/>
      <rect x="20" y="58" width="70" height="170" rx="10" fill="rgba(255,255,255,0.28)"/>
      <rect x="100" y="94" width="70" height="134" rx="10" fill="rgba(255,255,255,0.24)"/>
      <rect x="180" y="124" width="50" height="104" rx="10" fill="rgba(255,255,255,0.22)"/>
    </g>

    <g transform="translate(338 210)">
      <rect width="594" height="120" rx="18" fill="rgba(255,255,255,0.16)"/>
      <rect x="26" y="28" width="180" height="14" rx="7" fill="rgba(255,255,255,0.3)"/>
      <rect x="26" y="56" width="520" height="12" rx="6" fill="rgba(255,255,255,0.22)"/>
      <rect x="26" y="80" width="480" height="12" rx="6" fill="rgba(255,255,255,0.18)"/>
    </g>

    <g transform="translate(338 350)">
      <rect width="280" height="120" rx="18" fill="rgba(255,255,255,0.14)"/>
      <rect x="22" y="24" width="140" height="12" rx="6" fill="rgba(255,255,255,0.26)"/>
      <path d="M28 92 C58 60, 84 102, 118 74 C152 48, 184 98, 220 66 C238 50, 252 56, 258 40" fill="none" stroke="#fb923c" stroke-width="6" stroke-linecap="round"/>
    </g>

    <g transform="translate(652 350)">
      <rect width="280" height="120" rx="18" fill="rgba(255,255,255,0.14)"/>
      <rect x="22" y="24" width="130" height="12" rx="6" fill="rgba(255,255,255,0.26)"/>
      <circle cx="72" cy="78" r="26" fill="rgba(255,255,255,0.24)"/>
      <circle cx="144" cy="78" r="18" fill="rgba(255,255,255,0.22)"/>
      <circle cx="210" cy="78" r="30" fill="rgba(255,255,255,0.2)"/>
    </g>
  </g>

  <rect x="140" y="760" width="640" height="4" fill="url(#line)"/>
</svg>