<svg xmlns="http://www.w3.org/2000/svg" width="1600" height="900" viewBox="0 0 1600 900" role="img" aria-label="Servicios Java">
  <defs>
    <linearGradient id="bg" x1="0" y1="0" x2="1" y2="1">
      <stop offset="0%" stop-color="#2b140f"/>
      <stop offset="55%" stop-color="#6c2418"/>
      <stop offset="100%" stop-color="#c44a2d"/>
    </linearGradient>
    <radialGradient id="glow1" cx="0" cy="0" r="1" gradientTransform="translate(1250 180) rotate(90) scale(240 400)">
      <stop offset="0%" stop-color="rgba(255,255,255,0.32)"/>
      <stop offset="100%" stop-color="rgba(255,255,255,0)"/>
    </radialGradient>
    <radialGradient id="glow2" cx="0" cy="0" r="1" gradientTransform="translate(300 820) rotate(90) scale(260 440)">
      <stop offset="0%" stop-color="rgba(255,255,255,0.22)"/>
      <stop offset="100%" stop-color="rgba(255,255,255,0)"/>
    </radialGradient>
  </defs>

  <rect width="1600" height="900" fill="url(#bg)"/>
  <rect width="1600" height="900" fill="url(#glow1)"/>
  <rect width="1600" height="900" fill="url(#glow2)"/>

  <g opacity="0.22">
    <rect x="980" y="180" width="500" height="320" rx="26" fill="rgba(255,255,255,0.14)"/>
    <rect x="1020" y="220" width="190" height="32" rx="10" fill="rgba(255,255,255,0.24)"/>
    <rect x="1020" y="272" width="420" height="24" rx="10" fill="rgba(255,255,255,0.18)"/>
    <rect x="1020" y="312" width="370" height="24" rx="10" fill="rgba(255,255,255,0.18)"/>
    <rect x="1020" y="352" width="280" height="24" rx="10" fill="rgba(255,255,255,0.18)"/>
    <rect x="1020" y="402" width="420" height="56" rx="14" fill="rgba(255,255,255,0.12)"/>

    <rect x="1090" y="540" width="390" height="210" rx="22" fill="rgba(255,255,255,0.14)"/>
    <rect x="1120" y="578" width="96" height="130" rx="12" fill="rgba(255,255,255,0.24)"/>
    <rect x="1230" y="618" width="96" height="90" rx="12" fill="rgba(255,255,255,0.22)"/>
    <rect x="1340" y="592" width="96" height="116" rx="12" fill="rgba(255,255,255,0.20)"/>
  </g>

  <text x="90" y="290" font-family="Inter,Segoe UI,Arial,sans-serif" font-size="88" font-weight="700" fill="white">Servicios Java</text>
  <text x="90" y="370" font-family="Inter,Segoe UI,Arial,sans-serif" font-size="42" font-weight="500" fill="rgba(255,255,255,0.92)">Integración empresarial con contratos SOAP</text>

  <line x1="90" y1="420" x2="560" y2="420" stroke="rgba(255,255,255,0.35)" stroke-width="4"/>

  <g transform="translate(90,700)">
  <rect rx="20" ry="20" width="120" height="56" fill="rgba(255,255,255,0.16)" stroke="rgba(255,255,255,0.22)" />
  <text x="60.0" y="36" text-anchor="middle" font-family="Inter,Segoe UI,Arial,sans-serif" font-size="24" fill="white">Java</text>
</g>
<g transform="translate(228,700)">
  <rect rx="20" ry="20" width="120" height="56" fill="rgba(255,255,255,0.16)" stroke="rgba(255,255,255,0.22)" />
  <text x="60.0" y="36" text-anchor="middle" font-family="Inter,Segoe UI,Arial,sans-serif" font-size="24" fill="white">Spring</text>
</g>
<g transform="translate(366,700)">
  <rect rx="20" ry="20" width="120" height="56" fill="rgba(255,255,255,0.16)" stroke="rgba(255,255,255,0.22)" />
  <text x="60.0" y="36" text-anchor="middle" font-family="Inter,Segoe UI,Arial,sans-serif" font-size="24" fill="white">SOAP</text>
</g>


  <text x="90" y="836" font-family="Inter,Segoe UI,Arial,sans-serif" font-size="24" fill="rgba(255,255,255,0.82)">Jairo Ruiz • Featured Project</text>
</svg>
